<svg xmlns="http://www.w3.org/2000/svg" viewBox="0 0 1627 475"><defs><style>.cls-1{fill:#4285f4}.cls-3{mix-blend-mode:multiply}</style></defs><g style="isolation:isolate"><g id="Layer_1" data-name="Layer 1"><path d="M452.57 153.73h21.99v71.63h91.95v-71.63h21.99v167.83h-21.99v-75.64h-91.95v75.64h-21.99V153.73ZM675.66 323.93c-8.98 0-17.26-1.62-24.82-4.85s-14.1-7.6-19.62-13.12c-5.52-5.51-9.81-12.01-12.89-19.51-3.06-7.48-4.6-15.48-4.6-23.99s1.54-16.51 4.6-23.99c3.08-7.48 7.37-13.99 12.89-19.51 5.52-5.51 12.06-9.89 19.62-13.12 7.56-3.23 15.83-4.85 24.82-4.85s17.02 1.62 24.58 4.85c7.56 3.23 14.1 7.61 19.62 13.12 5.52 5.52 9.81 12.02 12.89 19.51 3.08 7.48 4.6 15.48 4.6 23.99s-1.52 16.51-4.6 23.99c-3.08 7.49-7.37 13.99-12.89 19.51-5.52 5.52-12.06 9.89-19.62 13.12s-15.76 4.85-24.58 4.85Zm0-18.91c6.16 0 11.73-1.11 16.79-3.31 5.04-2.21 9.33-5.24 12.87-9.11 3.56-3.86 6.31-8.35 8.27-13.47 1.98-5.13 2.96-10.68 2.96-16.67s-.98-11.35-2.96-16.54c-1.96-5.2-4.71-9.73-8.27-13.59-3.54-3.87-7.83-6.9-12.87-9.11-5.06-2.2-10.64-3.31-16.79-3.31s-11.73 1.11-16.77 3.31c-5.04 2.21-9.39 5.24-13 9.11-3.64 3.86-6.43 8.39-8.39 13.59-1.98 5.19-2.96 10.71-2.96 16.54s.98 11.54 2.96 16.67c1.96 5.12 4.75 9.61 8.39 13.47 3.62 3.87 7.96 6.9 13 9.11 5.04 2.2 10.64 3.31 16.77 3.31ZM759.23 203.37h20.33v22.93c1.1-3.78 2.85-7.17 5.19-10.17 2.37-2.99 5.06-5.51 8.04-7.56 3-2.05 6.19-3.63 9.58-4.73 3.39-1.1 6.81-1.65 10.27-1.65 3.15 0 6.23.32 9.23.94v21.05c-1.9-.79-3.71-1.3-5.44-1.54s-3.64-.36-5.67-.36c-3.77 0-7.52.83-11.23 2.48-3.69 1.65-7 4.14-9.93 7.44-2.9 3.31-5.31 7.53-7.19 12.65-1.9 5.13-2.85 11.15-2.85 18.08v58.62h-20.33V203.36ZM889.73 323.93c-8.98 0-17.26-1.62-24.82-4.85s-14.1-7.6-19.62-13.12c-5.52-5.51-9.81-12.01-12.89-19.51-3.06-7.48-4.6-15.48-4.6-23.99s1.54-16.51 4.6-23.99c3.08-7.48 7.37-13.99 12.89-19.51 5.52-5.51 12.06-9.89 19.62-13.12 7.56-3.23 15.83-4.85 24.82-4.85s17.02 1.62 24.58 4.85c7.56 3.23 14.1 7.61 19.62 13.12 5.52 5.52 9.81 12.02 12.89 19.51 3.08 7.48 4.6 15.48 4.6 23.99s-1.52 16.51-4.6 23.99c-3.08 7.49-7.37 13.99-12.89 19.51-5.52 5.52-12.06 9.89-19.62 13.12-7.56 3.23-15.76 4.85-24.58 4.85Zm0-18.91c6.16 0 11.73-1.11 16.79-3.31 5.04-2.21 9.33-5.24 12.87-9.11 3.56-3.86 6.31-8.35 8.27-13.47 1.98-5.13 2.96-10.68 2.96-16.67s-.98-11.35-2.96-16.54c-1.96-5.2-4.71-9.73-8.27-13.59-3.54-3.87-7.83-6.9-12.87-9.11-5.06-2.2-10.64-3.31-16.79-3.31s-11.73 1.11-16.77 3.31c-5.04 2.21-9.39 5.24-13 9.11-3.64 3.86-6.43 8.39-8.39 13.59-1.98 5.19-2.96 10.71-2.96 16.54s.98 11.54 2.96 16.67c1.96 5.12 4.75 9.61 8.39 13.47 3.62 3.87 7.96 6.9 13 9.11 5.04 2.2 10.64 3.31 16.77 3.31ZM1006.71 304.07c1.12 0 2.29-.03 3.56-.12 1.25-.08 2.75-.36 4.48-.83v18.2c-2.21.63-4.29 1.03-6.25 1.18-1.98.15-4.31.24-6.98.24-8.68 0-15.64-2.44-20.91-7.33-5.29-4.89-7.93-12.05-7.93-21.51V144.27h20.33V288.7c0 10.24 4.56 15.36 13.7 15.36ZM1081.79 323.93c-8.98 0-17.26-1.62-24.82-4.85-7.56-3.23-14.1-7.6-19.62-13.12-5.52-5.51-9.81-12.01-12.89-19.51-3.06-7.48-4.6-15.48-4.6-23.99s1.54-16.51 4.6-23.99c3.08-7.48 7.37-13.99 12.89-19.51 5.52-5.51 12.06-9.89 19.62-13.12 7.56-3.23 15.83-4.85 24.82-4.85s17.02 1.62 24.58 4.85c7.56 3.23 14.1 7.61 19.62 13.12 5.52 5.52 9.81 12.02 12.89 19.51 3.08 7.48 4.6 15.48 4.6 23.99s-1.52 16.51-4.6 23.99c-3.08 7.49-7.37 13.99-12.89 19.51-5.52 5.52-12.06 9.89-19.62 13.12s-15.76 4.85-24.58 4.85Zm0-18.91c6.16 0 11.73-1.11 16.79-3.31 5.04-2.21 9.33-5.24 12.87-9.11 3.56-3.86 6.31-8.35 8.27-13.47 1.98-5.13 2.96-10.68 2.96-16.67s-.98-11.35-2.96-16.54c-1.96-5.2-4.71-9.73-8.27-13.59-3.54-3.87-7.83-6.9-12.87-9.11-5.06-2.2-10.64-3.31-16.79-3.31s-11.73 1.11-16.77 3.31c-5.04 2.21-9.39 5.24-13 9.11-3.64 3.86-6.43 8.39-8.39 13.59-1.98 5.19-2.96 10.71-2.96 16.54s.98 11.54 2.96 16.67c1.96 5.12 4.75 9.61 8.39 13.47 3.62 3.87 7.96 6.9 13 9.11 5.04 2.2 10.64 3.31 16.77 3.31ZM1218.66 373.33c-7.89 0-15.14-1.03-21.76-3.07-6.62-2.05-12.41-4.89-17.37-8.51-4.96-3.63-8.98-7.92-12.06-12.88-3.06-4.97-5.08-10.45-6.02-16.44h19.85c2.67 7.89 7.25 13.68 13.72 17.38 6.46 3.7 14.49 5.55 24.1 5.55 5.37 0 10.33-.87 14.89-2.6 4.58-1.73 8.52-4.34 11.83-7.8 3.31-3.47 5.91-7.76 7.79-12.88 1.9-5.13 2.85-10.99 2.85-17.61v-13.95c-4.1 5.99-9.77 10.96-17.02 14.89-7.25 3.94-15.29 5.91-24.1 5.91-8.19 0-15.85-1.53-22.93-4.61-7.1-3.07-13.24-7.33-18.45-12.76-5.19-5.43-9.25-11.82-12.18-19.15-2.9-7.32-4.37-15.25-4.37-23.75s1.46-16.2 4.37-23.53c2.92-7.33 6.98-13.71 12.18-19.14 5.21-5.44 11.35-9.7 18.45-12.77 7.08-3.07 14.74-4.61 22.93-4.61 8.81 0 16.85 1.93 24.1 5.79 7.25 3.87 12.93 8.79 17.02 14.77v-18.2h20.33v110.86c0 9.93-1.54 18.55-4.62 25.88-3.08 7.33-7.21 13.48-12.41 18.44-5.21 4.96-11.35 8.67-18.45 11.11-7.08 2.44-14.66 3.66-22.68 3.66Zm-.48-70.92c5.83 0 11.23-1.02 16.2-3.07s9.18-4.92 12.64-8.63 6.19-8.08 8.16-13.12c1.98-5.04 2.96-10.56 2.96-16.54s-.98-11.31-2.96-16.43c-1.96-5.13-4.69-9.49-8.16-13.12-3.46-3.63-7.68-6.5-12.64-8.63-4.96-2.14-10.37-3.19-16.2-3.19s-11.43 1.06-16.31 3.19c-4.89 2.13-9.06 5-12.52 8.63-3.46 3.63-6.19 7.99-8.16 13.12-1.96 5.12-2.96 10.6-2.96 16.43s1 11.5 2.96 16.54 4.69 9.42 8.16 13.12c3.46 3.7 7.64 6.58 12.52 8.63s10.33 3.07 16.31 3.07ZM1317.35 171.7c-4.1 0-7.56-1.38-10.41-4.14-2.83-2.76-4.25-6.18-4.25-10.28s1.42-7.33 4.25-10.17c2.85-2.84 6.31-4.25 10.41-4.25s7.48 1.41 10.16 4.25c2.69 2.84 4.02 6.22 4.02 10.17s-1.33 7.52-4.02 10.28c-2.67 2.76-6.06 4.14-10.16 4.14Zm-10.41 31.67h20.33v118.19h-20.33V203.37ZM1396.72 323.93c-6.31 0-12.29-.79-17.97-2.37s-10.64-3.91-14.89-6.97c-4.27-3.07-7.73-6.9-10.41-11.47-2.67-4.57-4.25-9.85-4.73-15.84h20.81c.62 3.64 1.85 6.67 3.66 9.11s3.98 4.45 6.5 6.02a25.18 25.18 0 0 0 8.16 3.31c2.9.63 5.94.95 9.1.95 6.46 0 11.85-1.3 16.2-3.91 4.33-2.6 6.5-6.5 6.5-11.7 0-4.73-1.5-8.59-4.5-11.59-3-2.99-8.04-5.43-15.12-7.32l-17.02-4.49c-10.25-2.68-17.89-7.01-22.93-13-5.04-5.98-7.56-13.24-7.56-21.75 0-4.89 1.02-9.3 3.08-13.24 2.04-3.94 4.87-7.29 8.5-10.05 3.62-2.75 7.93-4.88 12.89-6.38s10.43-2.25 16.43-2.25 11.97.87 17.01 2.61c5.04 1.73 9.43 4.14 13.12 7.2 3.71 3.08 6.66 6.66 8.87 10.75 2.21 4.11 3.56 8.51 4.02 13.24h-20.33c-1.58-5.2-4.37-9.3-8.39-12.29s-8.79-4.49-14.29-4.49-10.48 1.3-14.43 3.9c-3.94 2.61-5.91 6.18-5.91 10.75s1.42 7.93 4.25 10.52c2.85 2.6 7.41 4.77 13.72 6.5l18.91 4.96c9.93 2.52 17.45 6.73 22.56 12.65 5.12 5.91 7.69 13.35 7.69 22.33 0 5.84-1.12 10.92-3.31 15.25-2.21 4.34-5.29 7.93-9.23 10.76-3.92 2.84-8.54 4.92-13.81 6.26-5.29 1.34-11 2.01-17.14 2.01ZM1508.99 322.75c-5.19 0-10-.75-14.41-2.25-4.42-1.49-8.25-3.69-11.47-6.62-3.23-2.91-5.75-6.66-7.58-11.22-1.81-4.57-2.71-9.93-2.71-16.07v-64.53h-25.05v-18.68h25.05v-32.86h20.33v32.86h34.03v18.68h-34.03v61.92c0 7.57 1.65 12.81 4.96 15.73s8.19 4.37 14.66 4.37c2.52 0 5.08-.19 7.68-.59s4.85-.98 6.73-1.77v18.2c-2.52.79-5.27 1.46-8.27 2.01-2.98.55-6.29.83-9.93.83Z"/><g class="cls-3"><path d="M139.34 369.52c-18.48 0-33.52-15.04-33.52-33.52V140.01c0-18.48 15.04-33.52 33.52-33.52s33.52 15.04 33.52 33.52V336c0 18.48-15.04 33.52-33.52 33.52Z" class="cls-1"/><path d="M139.34 112.48c15.18 0 27.52 12.35 27.52 27.52v195.99c0 15.18-12.35 27.52-27.52 27.52s-27.52-12.35-27.52-27.52V140c0-15.18 12.35-27.52 27.52-27.52m0-12c-21.83 0-39.52 17.69-39.52 39.52v195.99c0 21.83 17.69 39.52 39.52 39.52s39.52-17.69 39.52-39.52V140c0-21.83-17.69-39.52-39.52-39.52Z"/></g><g class="cls-3"><path d="M139.36 369.52c-10.22 0-19.75-4.56-26.14-12.51-11.59-14.4-9.29-35.55 5.11-47.13l136.34-109.69c6.02-4.84 13.28-7.4 20.99-7.4 10.22 0 19.75 4.56 26.14 12.51 11.59 14.4 9.29 35.54-5.11 47.13L160.34 362.12c-6.02 4.84-13.28 7.41-20.99 7.41Z" class="cls-1"/><path d="M275.66 198.78c8.39 0 16.22 3.74 21.47 10.27 9.51 11.82 7.63 29.18-4.19 38.7L156.59 357.44c-4.94 3.98-10.9 6.08-17.23 6.08-8.39 0-16.22-3.74-21.47-10.27-9.51-11.82-7.63-29.18 4.19-38.7l136.35-109.69c4.94-3.98 10.9-6.08 17.23-6.08m0-12a39.39 39.39 0 0 0-24.75 8.73L114.56 305.2c-17.01 13.68-19.7 38.56-6.02 55.57 7.81 9.71 19.26 14.75 30.82 14.75 8.69 0 17.45-2.86 24.75-8.73L300.46 257.1c17.01-13.68 19.7-38.56 6.02-55.57-7.81-9.71-19.26-14.75-30.82-14.75Z"/></g><circle cx="314.08" cy="335.95" r="33.15" style="fill:#3ddc84"/><path d="M314.08 308.81c14.97 0 27.15 12.18 27.15 27.15s-12.18 27.15-27.15 27.15-27.15-12.18-27.15-27.15 12.18-27.15 27.15-27.15m0-12c-21.62 0-39.15 17.53-39.15 39.15 0 21.62 17.53 39.15 39.15 39.15 21.62 0 39.15-17.53 39.15-39.15 0-21.62-17.53-39.15-39.15-39.15Z"/></g></g></svg>