<svg xmlns="http://www.w3.org/2000/svg" viewBox="0 0 500 500"><defs><style>.cls-1{fill:#4285f4}.cls-3{mix-blend-mode:multiply}</style></defs><g style="isolation:isolate"><g id="Layer_1" data-name="Layer 1"><g class="cls-3"><path d="M116.91 452c-28.86 0-52.33-23.48-52.33-52.33V100.48c0-28.86 23.48-52.33 52.33-52.33s52.33 23.48 52.33 52.33v299.19c0 28.86-23.48 52.33-52.33 52.33Z" class="cls-1"/><path d="M116.91 56.15c24.44 0 44.33 19.89 44.33 44.33v299.19c0 24.44-19.89 44.33-44.33 44.33s-44.33-19.89-44.33-44.33V100.48c0-24.44 19.89-44.33 44.33-44.33m0-16c-33.32 0-60.33 27.01-60.33 60.33v299.19c0 33.32 27.01 60.33 60.33 60.33s60.33-27.01 60.33-60.33V100.48c0-33.32-27.01-60.33-60.33-60.33Z"/></g><g class="cls-3"><path d="M116.95 452c-15.95 0-30.83-7.12-40.81-19.53-8.76-10.89-12.76-24.54-11.25-38.44 1.51-13.9 8.33-26.38 19.22-35.14l208.14-167.45c9.4-7.56 20.73-11.56 32.76-11.56 15.95 0 30.83 7.12 40.81 19.53 8.76 10.89 12.76 24.54 11.25 38.44-1.51 13.9-8.33 26.38-19.22 35.14L149.71 440.43c-9.4 7.56-20.73 11.56-32.77 11.56Z" class="cls-1"/><path d="M325.01 171.89v16c13.52 0 26.12 6.03 34.58 16.55 7.42 9.23 10.81 20.79 9.53 32.56-1.28 11.77-7.06 22.34-16.29 29.77L144.69 434.21c-7.96 6.41-17.56 9.79-27.75 9.79-13.52 0-26.12-6.03-34.58-16.55-15.32-19.05-12.29-47.01 6.75-62.33l208.14-167.44c7.96-6.41 17.56-9.79 27.75-9.79v-16m0 0c-13.27 0-26.63 4.36-37.78 13.33L79.08 352.66c-25.96 20.89-30.08 58.86-9.19 84.83 11.92 14.82 29.4 22.52 47.04 22.52 13.27 0 26.63-4.36 37.78-13.33l208.14-167.44c25.96-20.89 30.08-58.86 9.19-84.82-11.92-14.82-29.4-22.52-47.04-22.52Z"/></g><circle cx="383.66" cy="399.61" r="51.76" style="fill:#3ddc84"/><path d="M383.66 355.85c24.13 0 43.76 19.63 43.76 43.76s-19.63 43.76-43.76 43.76-43.76-19.63-43.76-43.76 19.63-43.76 43.76-43.76m0-16c-33 0-59.76 26.75-59.76 59.76 0 33 26.75 59.76 59.76 59.76s59.76-26.75 59.76-59.76c0-33-26.75-59.76-59.76-59.76Z"/></g></g></svg>